<svg xmlns="http://www.w3.org/2000/svg" width="512" height="512"><path d="M0 0h512v256H0z" fill="#0038a8"/><path d="M0 256h512v256H0z" fill="#ce1126"/><path d="M443.4 256L0 512V0" fill="#fff"/><path d="M25.233 44.375l15.409 13.316 17.841-9.821-7.903 18.77 14.854 13.933-20.294-1.716-8.66 18.433-4.64-19.831-20.206-2.541 17.426-10.54zM372.13 228.95l.415 20.362 19.237 6.687-19.237 6.686-.415 20.362-12.304-16.229-19.493 5.898 11.632-16.717-11.632-16.717 19.493 5.897zM36.48 414.71l8.66 18.433 20.295-1.716L50.58 445.36l7.902 18.77-17.84-9.821-15.41 13.316 3.828-20.002-17.426-10.54 20.206-2.541zM158.9 147.93l-6.646 6.646 3.296 50.341c-1.12.073-2.23.181-3.33.325l-6.052-45.938-5.424 5.424 8.166 41.06a50.885 50.885 0 0 0-18.453 7.647l-23.256-34.806h-7.673l28.207 36.765a51.374 51.374 0 0 0-2.58 2.127l-33.273-37.94h-9.403v9.403l37.94 33.273c-.736.839-1.446 1.7-2.127 2.587L81.527 196.63v7.673l34.813 23.263a50.89 50.89 0 0 0-7.653 18.446l-41.061-8.167-5.424 5.424 45.938 6.052c-.144 1.1-.252 2.21-.324 3.33l-50.341-3.296-6.647 6.647 6.647 6.646 50.34-3.296c.073 1.12.181 2.236.325 3.337l-45.938 6.045 5.424 5.424 41.06-8.166a50.877 50.877 0 0 0 7.647 18.453L81.527 307.7v7.673l36.765-28.207c.68.885 1.392 1.742 2.128 2.58L82.48 323.02v9.402h9.402l33.273-37.94c.839.737 1.7 1.446 2.587 2.128l-28.214 36.765h7.673l23.263-34.813a50.826 50.826 0 0 0 18.446 7.66l-8.166 41.054 5.424 5.424 6.052-45.938a51.27 51.27 0 0 0 3.33.324l-3.297 50.34 6.647 6.647 6.646-6.646-3.296-50.341a52.12 52.12 0 0 0 3.33-.324l6.052 45.938 5.424-5.424-8.166-41.061a50.882 50.882 0 0 0 18.453-7.646l23.256 34.806h7.673l-28.207-36.765a51.379 51.379 0 0 0 2.58-2.128l33.273 37.94h9.402v-9.402l-37.94-33.273a51.625 51.625 0 0 0 2.128-2.587l36.765 28.214V307.7l-34.813-23.263a50.889 50.889 0 0 0 7.653-18.446l41.061 8.166 5.424-5.424-45.938-6.052c.143-1.1.252-2.21.324-3.33l50.341 3.296 6.647-6.646-6.647-6.647-50.34 3.297a52.05 52.05 0 0 0-.325-3.33l45.938-6.052-5.424-5.424-41.061 8.166a50.88 50.88 0 0 0-7.646-18.453l34.806-23.256v-7.673l-36.765 28.207a51.44 51.44 0 0 0-2.128-2.58l37.94-33.273v-9.403h-9.402l-33.273 37.94a51.466 51.466 0 0 0-2.587-2.127l28.214-36.765h-7.673l-23.263 34.813a50.89 50.89 0 0 0-18.446-7.653l8.166-41.061-5.424-5.424-6.052 45.938c-1.1-.144-2.21-.252-3.33-.324l3.296-50.341z" fill="#fcd116"/></svg>